<svg xmlns="http://www.w3.org/2000/svg" xmlns:xlink="http://www.w3.org/1999/xlink" viewBox="0 0 1640 856"><defs><style>.a{fill:#31312c;}.b{fill:url(#a);}.c{fill:url(#b);}.d{fill:url(#c);}.e{fill:url(#d);}.f{fill:url(#e);}.g{fill:url(#f);}.h{fill:url(#g);}.i{fill:url(#h);}.j{fill:url(#i);}.k{fill:url(#j);}.l{fill:url(#k);}.m{fill:url(#l);}.n{fill:url(#m);}.o{fill:url(#n);}.p{fill:url(#o);}.q{fill:url(#p);}.r{fill:url(#q);}.s{fill:url(#r);}.t{fill:url(#s);}.u{fill:url(#t);}.v{fill:url(#u);}.w{fill:url(#v);}.x{fill:url(#w);}.y{fill:url(#x);}.z{fill:url(#y);}.aa{fill:url(#z);}.ab{fill:url(#aa);}.ac{fill:url(#ab);}.ad{fill:url(#ac);}.ae{fill:url(#ad);}.af{fill:url(#ae);}.ag{fill:url(#af);}.ah{fill:url(#ag);}.ai{fill:url(#ah);}.aj{fill:url(#ai);}.ak{fill:url(#aj);}.al{fill:url(#ak);}.am{fill:url(#al);}.an{fill:url(#am);}.ao{fill:url(#an);}.ap{fill:url(#ao);}.aq{fill:url(#ap);}.ar{fill:url(#aq);}.as{fill:url(#ar);}.at{fill:url(#as);}.au{fill:url(#at);}.av{fill:url(#au);}.aw{fill:url(#av);}.ax{fill:url(#aw);}.ay{fill:url(#ax);}.az{fill:url(#ay);}.ba{fill:url(#az);}.bb{fill:url(#ba);}.bc{fill:url(#bb);}.bd{fill:url(#bc);}.be{fill:url(#bd);}.bf{fill:url(#be);}.bg{fill:url(#bf);}.bh{fill:url(#bg);}.bi{fill:url(#bh);}.bj{fill:url(#bi);}.bk{fill:url(#bj);}.bl{fill:url(#bk);}.bm{fill:url(#bl);}.bn{fill:url(#bm);}.bo{fill:url(#bn);}.bp{fill:url(#bo);}.bq{fill:url(#bp);}.br{fill:url(#bq);}.bs{fill:url(#br);}.bt{fill:url(#bs);}.bu{fill:url(#bt);}.bv{fill:url(#bu);}.bw{fill:url(#bv);}.bx{fill:url(#bw);}.by{fill:url(#bx);}.bz{fill:url(#by);}.ca{fill:url(#bz);}.cb{fill:url(#ca);}.cc{fill:url(#cb);}.cd{fill:url(#cc);}.ce{fill:url(#cd);}.cf{fill:url(#ce);}.cg{fill:url(#cf);}.ch{fill:url(#cg);}.ci{fill:url(#ch);}.cj{fill:url(#ci);}.ck{fill:url(#cj);}.cl{fill:url(#ck);}.cm{fill:url(#cl);}.cn{fill:url(#cm);}.co{fill:url(#cn);}.cp{fill:url(#co);}.cq{fill:url(#cp);}.cr{fill:url(#cq);}.cs{fill:url(#cr);}.ct{fill:url(#cs);}.cu{fill:url(#ct);}.cv{fill:url(#cu);}.cw{fill:url(#cv);}.cx{fill:url(#cw);}.cy{fill:url(#cx);}.cz{fill:url(#cy);}.da{fill:url(#cz);}.db{fill:url(#da);}.dc{fill:url(#db);}.dd{fill:url(#dc);}.de{fill:url(#dd);}.df{fill:url(#de);}.dg{fill:url(#df);}.dh{fill:url(#dg);}.di{fill:url(#dh);}.dj{fill:url(#di);}.dk{fill:url(#dj);}.dl{fill:url(#dk);}.dm{fill:url(#dl);}.dn{fill:url(#dm);}.do{fill:url(#dn);}.dp{fill:url(#do);}.dq{fill:url(#dp);}.dr{fill:url(#dq);}.ds{fill:url(#dr);}.dt{fill:url(#ds);}.du{fill:url(#dt);}.dv{fill:url(#du);}.dw{fill:url(#dv);}.dx{fill:url(#dw);}.dy{fill:url(#dx);}.dz{fill:url(#dy);}.ea{fill:url(#dz);}.eb{fill:url(#ea);}.ec{fill:url(#eb);}.ed{fill:url(#ec);}.ee{fill:url(#ed);}.ef{fill:url(#ee);}.eg{fill:url(#ef);}.eh{fill:url(#eg);}.ei{fill:url(#eh);}.ej{fill:url(#ei);}.ek{fill:url(#ej);}.el{fill:url(#ek);}.em{fill:url(#el);}.en{fill:url(#em);}.eo{fill:url(#en);}.ep{fill:url(#eo);}.eq{fill:url(#ep);}.er{fill:url(#eq);}.es{fill:url(#er);}.et{fill:url(#es);}.eu{fill:url(#et);}.ev{fill:url(#eu);}.ew{fill:url(#ev);}.ex{fill:url(#ew);}.ey{fill:url(#ex);}.ez{fill:url(#ey);}.fa{fill:url(#ez);}.fb{fill:url(#fa);}.fc{fill:url(#fb);}.fd{fill:url(#fc);}.fe{fill:url(#fd);}.ff{fill:url(#fe);}.fg{fill:url(#ff);}.fh{fill:url(#fg);}.fi{fill:url(#fh);}.fj,.fk,.fl,.fm{fill:none;stroke-miterlimit:10;}.fj,.fl{stroke-width:3px;}.fj{stroke:url(#fi);}.fk{stroke-width:2px;stroke:url(#fj);}.fl{stroke:url(#fk);}.fm{stroke:url(#fl);}.fn{fill:url(#fm);}.fo{fill:url(#fn);}.fp{fill:url(#fo);}.fq{fill:url(#fp);}.fr{fill:#efeee0;}.fs{fill:#0c0c0c;}</style><linearGradient id="a" x1="20.35" y1="2.12" x2="20.35" y2="36.63" gradientUnits="userSpaceOnUse"><stop offset="0"/><stop offset="0" stop-color="#372d2a"/><stop offset="0" stop-color="#ff867a"/><stop offset="0.23" stop-color="#ff8c7f"/><stop offset="0.53" stop-color="#f99185"/><stop offset="0.66" stop-color="#d65e70"/><stop offset="0.78" stop-color="#cf556c"/><stop offset="0.82" stop-color="#cc516a"/><stop offset="0.87" stop-color="#c34365"/><stop offset="0.91" stop-color="#b42e5c"/><stop offset="0.92" stop-color="#b12a5b"/><stop offset="1" stop-color="#b12a5b"/><stop offset="1" stop-color="#9e9e9e"/></linearGradient><linearGradient id="b" x1="70.35" y1="2.59" x2="70.35" y2="28.48" xlink:href="#a"/><linearGradient id="c" x1="110.35" y1="3.06" x2="110.35" y2="20.32" xlink:href="#a"/><linearGradient id="d" x1="30.35" y1="3.06" x2="30.35" y2="20.32" xlink:href="#a"/><linearGradient id="e" x1="40.35" y1="3.06" x2="40.35" y2="20.32" xlink:href="#a"/><linearGradient id="f" x1="50.35" y1="3.06" x2="50.35" y2="20.32" xlink:href="#a"/><linearGradient id="g" x1="60.35" y1="3.06" x2="60.35" y2="20.32" xlink:href="#a"/><linearGradient id="h" x1="80.35" y1="3.06" x2="80.35" y2="20.32" xlink:href="#a"/><linearGradient id="i" x1="90.35" y1="3.06" x2="90.35" y2="20.32" xlink:href="#a"/><linearGradient id="j" x1="100.35" y1="3.06" x2="100.35" y2="20.32" xlink:href="#a"/><linearGradient id="k" x1="170.18" y1="2.59" x2="170.18" y2="28.48" xlink:href="#a"/><linearGradient id="l" x1="120.35" y1="2.12" x2="120.35" y2="36.63" xlink:href="#a"/><linearGradient id="m" x1="130.35" y1="3.06" x2="130.35" y2="20.32" xlink:href="#a"/><linearGradient id="n" x1="140.35" y1="3.06" x2="140.35" y2="20.32" xlink:href="#a"/><linearGradient id="o" x1="150.26" y1="3.06" x2="150.26" y2="20.32" xlink:href="#a"/><linearGradient id="p" x1="160.22" y1="3.06" x2="160.22" y2="20.32" xlink:href="#a"/><linearGradient id="q" x1="180.18" y1="3.06" x2="180.18" y2="20.32" xlink:href="#a"/><linearGradient id="r" x1="190.18" y1="3.06" x2="190.18" y2="20.32" xlink:href="#a"/><linearGradient id="s" x1="200.18" y1="3.06" x2="200.18" y2="20.32" xlink:href="#a"/><linearGradient id="t" x1="210.18" y1="3.06" x2="210.18" y2="20.32" xlink:href="#a"/><linearGradient id="u" x1="220.18" y1="2.12" x2="220.18" y2="36.63" xlink:href="#a"/><linearGradient id="v" x1="230.18" y1="3.06" x2="230.18" y2="20.32" xlink:href="#a"/><linearGradient id="w" x1="240.18" y1="3.06" x2="240.18" y2="20.32" xlink:href="#a"/><linearGradient id="x" x1="250.18" y1="3.06" x2="250.18" y2="20.32" xlink:href="#a"/><linearGradient id="y" x1="260.18" y1="3.06" x2="260.18" y2="20.32" xlink:href="#a"/><linearGradient id="z" x1="270.18" y1="2.59" x2="270.18" y2="28.48" xlink:href="#a"/><linearGradient id="aa" x1="280.18" y1="3.06" x2="280.18" y2="20.32" xlink:href="#a"/><linearGradient id="ab" x1="290.18" y1="3.06" x2="290.18" y2="20.32" xlink:href="#a"/><linearGradient id="ac" x1="300.18" y1="3.06" x2="300.18" y2="20.32" xlink:href="#a"/><linearGradient id="ad" x1="310.18" y1="3.06" x2="310.18" y2="20.32" xlink:href="#a"/><linearGradient id="ae" x1="320.18" y1="2.12" x2="320.18" y2="36.63" xlink:href="#a"/><linearGradient id="af" x1="330.18" y1="3.06" x2="330.18" y2="20.32" xlink:href="#a"/><linearGradient id="ag" x1="340.18" y1="3.06" x2="340.18" y2="20.32" xlink:href="#a"/><linearGradient id="ah" x1="350.18" y1="3.06" x2="350.18" y2="20.32" xlink:href="#a"/><linearGradient id="ai" x1="360.18" y1="3.06" x2="360.18" y2="20.32" xlink:href="#a"/><linearGradient id="aj" x1="370.18" y1="2.59" x2="370.18" y2="28.48" xlink:href="#a"/><linearGradient id="ak" x1="380.18" y1="3.06" x2="380.18" y2="20.32" xlink:href="#a"/><linearGradient id="al" x1="390.18" y1="3.06" x2="390.18" y2="20.32" xlink:href="#a"/><linearGradient id="am" x1="400.18" y1="3.06" x2="400.18" y2="20.32" xlink:href="#a"/><linearGradient id="an" x1="410.18" y1="3.06" x2="410.18" y2="20.32" xlink:href="#a"/><linearGradient id="ao" x1="420.15" y1="2.12" x2="420.15" y2="36.63" xlink:href="#a"/><linearGradient id="ap" x1="470.15" y1="2.59" x2="470.15" y2="28.48" xlink:href="#a"/><linearGradient id="aq" x1="510.15" y1="3.06" x2="510.15" y2="20.32" xlink:href="#a"/><linearGradient id="ar" x1="430.15" y1="3.06" x2="430.15" y2="20.32" xlink:href="#a"/><linearGradient id="as" x1="440.15" y1="3.06" x2="440.15" y2="20.32" xlink:href="#a"/><linearGradient id="at" x1="450.15" y1="3.06" x2="450.15" y2="20.32" xlink:href="#a"/><linearGradient id="au" x1="460.15" y1="3.06" x2="460.15" y2="20.32" xlink:href="#a"/><linearGradient id="av" x1="480.15" y1="3.06" x2="480.15" y2="20.32" xlink:href="#a"/><linearGradient id="aw" x1="490.15" y1="3.06" x2="490.15" y2="20.32" xlink:href="#a"/><linearGradient id="ax" x1="500.15" y1="3.06" x2="500.15" y2="20.32" xlink:href="#a"/><linearGradient id="ay" x1="569.99" y1="2.59" x2="569.99" y2="28.48" xlink:href="#a"/><linearGradient id="az" x1="520.15" y1="2.12" x2="520.15" y2="36.63" xlink:href="#a"/><linearGradient id="ba" x1="530.15" y1="3.06" x2="530.15" y2="20.32" xlink:href="#a"/><linearGradient id="bb" x1="540.15" y1="3.06" x2="540.15" y2="20.32" xlink:href="#a"/><linearGradient id="bc" x1="550.07" y1="3.06" x2="550.07" y2="20.32" xlink:href="#a"/><linearGradient id="bd" x1="560.03" y1="3.06" x2="560.03" y2="20.32" xlink:href="#a"/><linearGradient id="be" x1="579.99" y1="3.06" x2="579.99" y2="20.32" xlink:href="#a"/><linearGradient id="bf" x1="589.99" y1="3.06" x2="589.99" y2="20.32" xlink:href="#a"/><linearGradient id="bg" x1="599.99" y1="3.06" x2="599.99" y2="20.32" xlink:href="#a"/><linearGradient id="bh" x1="609.99" y1="3.06" x2="609.99" y2="20.32" xlink:href="#a"/><linearGradient id="bi" x1="619.99" y1="2.12" x2="619.99" y2="36.63" xlink:href="#a"/><linearGradient id="bj" x1="629.99" y1="3.06" x2="629.99" y2="20.32" xlink:href="#a"/><linearGradient id="bk" x1="639.99" y1="3.06" x2="639.99" y2="20.32" xlink:href="#a"/><linearGradient id="bl" x1="649.99" y1="3.06" x2="649.99" y2="20.32" xlink:href="#a"/><linearGradient id="bm" x1="659.99" y1="3.06" x2="659.99" y2="20.32" xlink:href="#a"/><linearGradient id="bn" x1="669.99" y1="2.59" x2="669.99" y2="28.48" xlink:href="#a"/><linearGradient id="bo" x1="679.99" y1="3.06" x2="679.99" y2="20.32" xlink:href="#a"/><linearGradient id="bp" x1="689.99" y1="3.06" x2="689.99" y2="20.32" xlink:href="#a"/><linearGradient id="bq" x1="699.99" y1="3.06" x2="699.99" y2="20.32" xlink:href="#a"/><linearGradient id="br" x1="709.99" y1="3.06" x2="709.99" y2="20.32" xlink:href="#a"/><linearGradient id="bs" x1="719.99" y1="2.12" x2="719.99" y2="36.63" xlink:href="#a"/><linearGradient id="bt" x1="729.99" y1="3.06" x2="729.99" y2="20.32" xlink:href="#a"/><linearGradient id="bu" x1="739.99" y1="3.06" x2="739.99" y2="20.32" xlink:href="#a"/><linearGradient id="bv" x1="749.99" y1="3.06" x2="749.99" y2="20.32" xlink:href="#a"/><linearGradient id="bw" x1="759.99" y1="3.06" x2="759.99" y2="20.32" xlink:href="#a"/><linearGradient id="bx" x1="769.99" y1="2.59" x2="769.99" y2="28.48" xlink:href="#a"/><linearGradient id="by" x1="779.99" y1="3.06" x2="779.99" y2="20.32" xlink:href="#a"/><linearGradient id="bz" x1="789.99" y1="3.06" x2="789.99" y2="20.32" xlink:href="#a"/><linearGradient id="ca" x1="799.99" y1="3.06" x2="799.99" y2="20.32" xlink:href="#a"/><linearGradient id="cb" x1="809.99" y1="3.06" x2="809.99" y2="20.32" xlink:href="#a"/><linearGradient id="cc" x1="819.99" y1="2.12" x2="819.99" y2="36.63" xlink:href="#a"/><linearGradient id="cd" x1="869.99" y1="2.59" x2="869.99" y2="28.48" xlink:href="#a"/><linearGradient id="ce" x1="909.99" y1="3.06" x2="909.99" y2="20.32" xlink:href="#a"/><linearGradient id="cf" x1="829.99" y1="3.06" x2="829.99" y2="20.32" xlink:href="#a"/><linearGradient id="cg" x1="839.99" y1="3.06" x2="839.99" y2="20.32" xlink:href="#a"/><linearGradient id="ch" x1="849.99" y1="3.06" x2="849.99" y2="20.32" xlink:href="#a"/><linearGradient id="ci" x1="859.99" y1="3.06" x2="859.99" y2="20.32" xlink:href="#a"/><linearGradient id="cj" x1="879.99" y1="3.06" x2="879.99" y2="20.32" xlink:href="#a"/><linearGradient id="ck" x1="889.99" y1="3.06" x2="889.99" y2="20.32" xlink:href="#a"/><linearGradient id="cl" x1="899.99" y1="3.06" x2="899.99" y2="20.32" xlink:href="#a"/><linearGradient id="cm" x1="969.82" y1="2.59" x2="969.82" y2="28.48" xlink:href="#a"/><linearGradient id="cn" x1="919.99" y1="2.12" x2="919.99" y2="36.63" xlink:href="#a"/><linearGradient id="co" x1="929.99" y1="3.06" x2="929.99" y2="20.32" xlink:href="#a"/><linearGradient id="cp" x1="939.99" y1="3.06" x2="939.99" y2="20.32" xlink:href="#a"/><linearGradient id="cq" x1="949.9" y1="3.06" x2="949.9" y2="20.32" xlink:href="#a"/><linearGradient id="cr" x1="959.86" y1="3.06" x2="959.86" y2="20.32" xlink:href="#a"/><linearGradient id="cs" x1="979.82" y1="3.06" x2="979.82" y2="20.32" xlink:href="#a"/><linearGradient id="ct" x1="989.82" y1="3.06" x2="989.82" y2="20.32" xlink:href="#a"/><linearGradient id="cu" x1="999.82" y1="3.06" x2="999.82" y2="20.32" xlink:href="#a"/><linearGradient id="cv" x1="1009.82" y1="3.06" x2="1009.82" y2="20.32" xlink:href="#a"/><linearGradient id="cw" x1="1019.82" y1="2.12" x2="1019.82" y2="36.63" xlink:href="#a"/><linearGradient id="cx" x1="1029.82" y1="3.06" x2="1029.82" y2="20.32" xlink:href="#a"/><linearGradient id="cy" x1="1039.82" y1="3.06" x2="1039.82" y2="20.32" xlink:href="#a"/><linearGradient id="cz" x1="1049.82" y1="3.06" x2="1049.82" y2="20.32" xlink:href="#a"/><linearGradient id="da" x1="1059.82" y1="3.06" x2="1059.82" y2="20.32" xlink:href="#a"/><linearGradient id="db" x1="1069.82" y1="2.59" x2="1069.82" y2="28.48" xlink:href="#a"/><linearGradient id="dc" x1="1079.82" y1="3.06" x2="1079.82" y2="20.32" xlink:href="#a"/><linearGradient id="dd" x1="1089.82" y1="3.06" x2="1089.82" y2="20.32" xlink:href="#a"/><linearGradient id="de" x1="1099.82" y1="3.06" x2="1099.82" y2="20.32" xlink:href="#a"/><linearGradient id="df" x1="1109.82" y1="3.06" x2="1109.82" y2="20.32" xlink:href="#a"/><linearGradient id="dg" x1="1119.82" y1="2.12" x2="1119.82" y2="36.63" xlink:href="#a"/><linearGradient id="dh" x1="1129.82" y1="3.06" x2="1129.82" y2="20.32" xlink:href="#a"/><linearGradient id="di" x1="1139.82" y1="3.06" x2="1139.82" y2="20.32" xlink:href="#a"/><linearGradient id="dj" x1="1149.82" y1="3.06" x2="1149.82" y2="20.32" xlink:href="#a"/><linearGradient id="dk" x1="1159.82" y1="3.06" x2="1159.82" y2="20.32" xlink:href="#a"/><linearGradient id="dl" x1="1169.82" y1="2.59" x2="1169.82" y2="28.48" xlink:href="#a"/><linearGradient id="dm" x1="1179.82" y1="3.06" x2="1179.82" y2="20.32" xlink:href="#a"/><linearGradient id="dn" x1="1189.82" y1="3.06" x2="1189.82" y2="20.32" xlink:href="#a"/><linearGradient id="do" x1="1199.82" y1="3.06" x2="1199.82" y2="20.32" xlink:href="#a"/><linearGradient id="dp" x1="1209.82" y1="3.06" x2="1209.82" y2="20.32" xlink:href="#a"/><linearGradient id="dq" x1="1219.82" y1="2.12" x2="1219.82" y2="36.63" xlink:href="#a"/><linearGradient id="dr" x1="1269.82" y1="2.59" x2="1269.82" y2="28.48" xlink:href="#a"/><linearGradient id="ds" x1="1309.82" y1="3.06" x2="1309.82" y2="20.32" xlink:href="#a"/><linearGradient id="dt" x1="1229.82" y1="3.06" x2="1229.82" y2="20.32" xlink:href="#a"/><linearGradient id="du" x1="1239.82" y1="3.06" x2="1239.82" y2="20.32" xlink:href="#a"/><linearGradient id="dv" x1="1249.82" y1="3.06" x2="1249.82" y2="20.32" xlink:href="#a"/><linearGradient id="dw" x1="1259.82" y1="3.06" x2="1259.82" y2="20.32" xlink:href="#a"/><linearGradient id="dx" x1="1279.82" y1="3.06" x2="1279.82" y2="20.32" xlink:href="#a"/><linearGradient id="dy" x1="1289.82" y1="3.06" x2="1289.82" y2="20.32" xlink:href="#a"/><linearGradient id="dz" x1="1299.82" y1="3.06" x2="1299.82" y2="20.32" xlink:href="#a"/><linearGradient id="ea" x1="1369.65" y1="2.59" x2="1369.65" y2="28.48" xlink:href="#a"/><linearGradient id="eb" x1="1319.82" y1="2.12" x2="1319.82" y2="36.63" xlink:href="#a"/><linearGradient id="ec" x1="1329.82" y1="3.06" x2="1329.82" y2="20.32" xlink:href="#a"/><linearGradient id="ed" x1="1339.82" y1="3.06" x2="1339.82" y2="20.32" xlink:href="#a"/><linearGradient id="ee" x1="1349.74" y1="3.06" x2="1349.74" y2="20.32" xlink:href="#a"/><linearGradient id="ef" x1="1359.69" y1="3.06" x2="1359.69" y2="20.32" xlink:href="#a"/><linearGradient id="eg" x1="1379.65" y1="3.06" x2="1379.65" y2="20.32" xlink:href="#a"/><linearGradient id="eh" x1="1389.65" y1="3.06" x2="1389.65" y2="20.32" xlink:href="#a"/><linearGradient id="ei" x1="1399.65" y1="3.06" x2="1399.65" y2="20.32" xlink:href="#a"/><linearGradient id="ej" x1="1409.65" y1="3.06" x2="1409.65" y2="20.32" xlink:href="#a"/><linearGradient id="ek" x1="1419.65" y1="2.12" x2="1419.65" y2="36.63" xlink:href="#a"/><linearGradient id="el" x1="1429.65" y1="3.06" x2="1429.65" y2="20.32" xlink:href="#a"/><linearGradient id="em" x1="1439.65" y1="3.06" x2="1439.65" y2="20.32" xlink:href="#a"/><linearGradient id="en" x1="1449.65" y1="3.06" x2="1449.65" y2="20.32" xlink:href="#a"/><linearGradient id="eo" x1="1459.65" y1="3.06" x2="1459.65" y2="20.32" xlink:href="#a"/><linearGradient id="ep" x1="1469.65" y1="2.59" x2="1469.65" y2="28.48" xlink:href="#a"/><linearGradient id="eq" x1="1479.65" y1="3.06" x2="1479.65" y2="20.32" xlink:href="#a"/><linearGradient id="er" x1="1489.65" y1="3.06" x2="1489.65" y2="20.32" xlink:href="#a"/><linearGradient id="es" x1="1499.65" y1="3.06" x2="1499.65" y2="20.32" xlink:href="#a"/><linearGradient id="et" x1="1509.65" y1="3.06" x2="1509.65" y2="20.32" xlink:href="#a"/><linearGradient id="eu" x1="1519.65" y1="2.12" x2="1519.65" y2="36.63" xlink:href="#a"/><linearGradient id="ev" x1="1529.65" y1="3.06" x2="1529.65" y2="20.32" xlink:href="#a"/><linearGradient id="ew" x1="1539.65" y1="3.06" x2="1539.65" y2="20.32" xlink:href="#a"/><linearGradient id="ex" x1="1549.65" y1="3.06" x2="1549.65" y2="20.32" xlink:href="#a"/><linearGradient id="ey" x1="1559.65" y1="3.06" x2="1559.65" y2="20.32" xlink:href="#a"/><linearGradient id="ez" x1="1569.65" y1="2.59" x2="1569.65" y2="28.48" xlink:href="#a"/><linearGradient id="fa" x1="1579.65" y1="3.06" x2="1579.65" y2="20.32" xlink:href="#a"/><linearGradient id="fb" x1="1589.65" y1="3.06" x2="1589.65" y2="20.32" xlink:href="#a"/><linearGradient id="fc" x1="1599.65" y1="3.06" x2="1599.65" y2="20.32" xlink:href="#a"/><linearGradient id="fd" x1="1609.65" y1="3.06" x2="1609.65" y2="20.32" xlink:href="#a"/><linearGradient id="fe" x1="1619.65" y1="2.12" x2="1619.65" y2="36.63" xlink:href="#a"/><linearGradient id="ff" x1="75.4" y1="1146.68" x2="1576.83" y2="444.85" gradientUnits="userSpaceOnUse"><stop offset="0" stop-color="#9e9e9e"/><stop offset="0" stop-color="#b12a5b"/><stop offset="0.04" stop-color="#b12a5b"/><stop offset="0.07" stop-color="#bd3b62"/><stop offset="0.1" stop-color="#c74a68"/><stop offset="0.15" stop-color="#cd526b"/><stop offset="0.22" stop-color="#cf556c"/><stop offset="0.34" stop-color="#d65e70"/><stop offset="0.47" stop-color="#f99185"/><stop offset="0.77" stop-color="#ff8c7f"/><stop offset="1" stop-color="#ff867a"/><stop offset="1" stop-color="#372d2a"/><stop offset="1"/></linearGradient><linearGradient id="fg" x1="399.39" y1="428" x2="1640.08" y2="428" gradientTransform="translate(829.94 25.12) rotate(89.93)" gradientUnits="userSpaceOnUse"><stop offset="0" stop-color="#9e9e9e"/><stop offset="0" stop-color="#b12a5b"/><stop offset="0.08" stop-color="#b12a5b"/><stop offset="0.09" stop-color="#b42e5c"/><stop offset="0.13" stop-color="#c34365"/><stop offset="0.18" stop-color="#cc516a"/><stop offset="0.22" stop-color="#cf556c"/><stop offset="0.34" stop-color="#d65e70"/><stop offset="0.47" stop-color="#f99185"/><stop offset="0.77" stop-color="#ff8c7f"/><stop offset="1" stop-color="#ff867a"/><stop offset="1" stop-color="#372d2a"/><stop offset="1"/></linearGradient><linearGradient id="fh" x1="399.48" y1="428.67" x2="1633.99" y2="428.67" gradientTransform="matrix(1, 0, 0, 1, 0, 0)" xlink:href="#fg"/><linearGradient id="fi" x1="-0.25" y1="439.34" x2="365.77" y2="439.34" gradientUnits="userSpaceOnUse"><stop offset="0"/><stop offset="0" stop-color="#372d2a"/><stop offset="0" stop-color="#ff867a"/><stop offset="0.23" stop-color="#ff8c7f"/><stop offset="0.53" stop-color="#f99185"/><stop offset="0.66" stop-color="#d65e70"/><stop offset="0.78" stop-color="#cf556c"/><stop offset="0.83" stop-color="#cc516a"/><stop offset="0.88" stop-color="#c34365"/><stop offset="0.93" stop-color="#b42e5c"/><stop offset="0.93" stop-color="#b12a5b"/><stop offset="1" stop-color="#b12a5b"/><stop offset="1" stop-color="#9e9e9e"/></linearGradient><linearGradient id="fj" x1="-0.18" y1="433.99" x2="339.06" y2="433.99" xlink:href="#fi"/><linearGradient id="fk" x1="-0.18" y1="432.61" x2="339.56" y2="432.61" xlink:href="#fi"/><linearGradient id="fl" x1="-0.07" y1="439.34" x2="355.12" y2="439.34" xlink:href="#fi"/><linearGradient id="fm" x1="241.37" y1="728.61" x2="241.52" y2="146.19" gradientTransform="matrix(1, 0, 0, 1, 0, 0)" xlink:href="#fg"/><linearGradient id="fn" x1="235.01" y1="728.6" x2="235.16" y2="146.19" gradientTransform="matrix(1, 0, 0, 1, 0, 0)" xlink:href="#fg"/><linearGradient id="fo" x1="82.63" y1="728.56" x2="82.78" y2="146.15" gradientTransform="matrix(1, 0, 0, 1, 0, 0)" xlink:href="#fg"/><linearGradient id="fp" x1="75.66" y1="728.56" x2="75.81" y2="146.14" gradientTransform="matrix(1, 0, 0, 1, 0, 0)" xlink:href="#fg"/></defs><title>工作區域 1</title><rect class="a" x="-1.82" width="1642.3" height="856.44"/><rect class="b" x="18.85" y="4" width="3" height="30"/><rect class="c" x="68.85" y="4" width="3" height="22.5"/><rect class="d" x="108.85" y="4" width="3" height="15"/><rect class="e" x="28.85" y="4" width="3" height="15"/><rect class="f" x="38.85" y="4" width="3" height="15"/><rect class="g" x="48.85" y="4" width="3" height="15"/><rect class="h" x="58.85" y="4" width="3" height="15"/><rect class="i" x="78.85" y="4" width="3" height="15"/><rect class="j" x="88.85" y="4" width="3" height="15"/><rect class="k" x="98.85" y="4" width="3" height="15"/><rect class="l" x="168.68" y="4" width="3" height="22.5"/><rect class="m" x="118.85" y="4" width="3" height="30"/><rect class="n" x="128.85" y="4" width="3" height="15"/><rect class="o" x="138.85" y="4" width="3" height="15"/><rect class="p" x="148.76" y="4" width="3" height="15"/><rect class="q" x="158.72" y="4" width="3" height="15"/><rect class="r" x="178.68" y="4" width="3" height="15"/><rect class="s" x="188.68" y="4" width="3" height="15"/><rect class="t" x="198.68" y="4" width="3" height="15"/><rect class="u" x="208.68" y="4" width="3" height="15"/><rect class="v" x="218.68" y="4" width="3" height="30"/><rect class="w" x="228.68" y="4" width="3" height="15"/><rect class="x" x="238.68" y="4" width="3" height="15"/><rect class="y" x="248.68" y="4" width="3" height="15"/><rect class="z" x="258.68" y="4" width="3" height="15"/><rect class="aa" x="268.68" y="4" width="3" height="22.5"/><rect class="ab" x="278.68" y="4" width="3" height="15"/><rect class="ac" x="288.68" y="4" width="3" height="15"/><rect class="ad" x="298.68" y="4" width="3" height="15"/><rect class="ae" x="308.68" y="4" width="3" height="15"/><rect class="af" x="318.68" y="4" width="3" height="30"/><rect class="ag" x="328.68" y="4" width="3" height="15"/><rect class="ah" x="338.68" y="4" width="3" height="15"/><rect class="ai" x="348.68" y="4" width="3" height="15"/><rect class="aj" x="358.68" y="4" width="3" height="15"/><rect class="ak" x="368.68" y="4" width="3" height="22.5"/><rect class="al" x="378.68" y="4" width="3" height="15"/><rect class="am" x="388.68" y="4" width="3" height="15"/><rect class="an" x="398.68" y="4" width="3" height="15"/><rect class="ao" x="408.68" y="4" width="3" height="15"/><rect class="ap" x="418.65" y="4" width="3" height="30"/><rect class="aq" x="468.65" y="4" width="3" height="22.5"/><rect class="ar" x="508.65" y="4" width="3" height="15"/><rect class="as" x="428.65" y="4" width="3" height="15"/><rect class="at" x="438.65" y="4" width="3" height="15"/><rect class="au" x="448.65" y="4" width="3" height="15"/><rect class="av" x="458.65" y="4" width="3" height="15"/><rect class="aw" x="478.65" y="4" width="3" height="15"/><rect class="ax" x="488.65" y="4" width="3" height="15"/><rect class="ay" x="498.65" y="4" width="3" height="15"/><rect class="az" x="568.49" y="4" width="3" height="22.5"/><rect class="ba" x="518.65" y="4" width="3" height="30"/><rect class="bb" x="528.65" y="4" width="3" height="15"/><rect class="bc" x="538.65" y="4" width="3" height="15"/><rect class="bd" x="548.57" y="4" width="3" height="15"/><rect class="be" x="558.53" y="4" width="3" height="15"/><rect class="bf" x="578.49" y="4" width="3" height="15"/><rect class="bg" x="588.49" y="4" width="3" height="15"/><rect class="bh" x="598.49" y="4" width="3" height="15"/><rect class="bi" x="608.49" y="4" width="3" height="15"/><rect class="bj" x="618.49" y="4" width="3" height="30"/><rect class="bk" x="628.49" y="4" width="3" height="15"/><rect class="bl" x="638.49" y="4" width="3" height="15"/><rect class="bm" x="648.49" y="4" width="3" height="15"/><rect class="bn" x="658.49" y="4" width="3" height="15"/><rect class="bo" x="668.49" y="4" width="3" height="22.5"/><rect class="bp" x="678.49" y="4" width="3" height="15"/><rect class="bq" x="688.49" y="4" width="3" height="15"/><rect class="br" x="698.49" y="4" width="3" height="15"/><rect class="bs" x="708.49" y="4" width="3" height="15"/><rect class="bt" x="718.49" y="4" width="3" height="30"/><rect class="bu" x="728.49" y="4" width="3" height="15"/><rect class="bv" x="738.49" y="4" width="3" height="15"/><rect class="bw" x="748.49" y="4" width="3" height="15"/><rect class="bx" x="758.49" y="4" width="3" height="15"/><rect class="by" x="768.49" y="4" width="3" height="22.5"/><rect class="bz" x="778.49" y="4" width="3" height="15"/><rect class="ca" x="788.49" y="4" width="3" height="15"/><rect class="cb" x="798.49" y="4" width="3" height="15"/><rect class="cc" x="808.49" y="4" width="3" height="15"/><rect class="cd" x="818.49" y="4" width="3" height="30"/><rect class="ce" x="868.49" y="4" width="3" height="22.5"/><rect class="cf" x="908.49" y="4" width="3" height="15"/><rect class="cg" x="828.49" y="4" width="3" height="15"/><rect class="ch" x="838.49" y="4" width="3" height="15"/><rect class="ci" x="848.49" y="4" width="3" height="15"/><rect class="cj" x="858.49" y="4" width="3" height="15"/><rect class="ck" x="878.49" y="4" width="3" height="15"/><rect class="cl" x="888.49" y="4" width="3" height="15"/><rect class="cm" x="898.49" y="4" width="3" height="15"/><rect class="cn" x="968.32" y="4" width="3" height="22.5"/><rect class="co" x="918.49" y="4" width="3" height="30"/><rect class="cp" x="928.49" y="4" width="3" height="15"/><rect class="cq" x="938.49" y="4" width="3" height="15"/><rect class="cr" x="948.4" y="4" width="3" height="15"/><rect class="cs" x="958.36" y="4" width="3" height="15"/><rect class="ct" x="978.32" y="4" width="3" height="15"/><rect class="cu" x="988.32" y="4" width="3" height="15"/><rect class="cv" x="998.32" y="4" width="3" height="15"/><rect class="cw" x="1008.32" y="4" width="3" height="15"/><rect class="cx" x="1018.32" y="4" width="3" height="30"/><rect class="cy" x="1028.32" y="4" width="3" height="15"/><rect class="cz" x="1038.32" y="4" width="3" height="15"/><rect class="da" x="1048.32" y="4" width="3" height="15"/><rect class="db" x="1058.32" y="4" width="3" height="15"/><rect class="dc" x="1068.32" y="4" width="3" height="22.5"/><rect class="dd" x="1078.32" y="4" width="3" height="15"/><rect class="de" x="1088.32" y="4" width="3" height="15"/><rect class="df" x="1098.32" y="4" width="3" height="15"/><rect class="dg" x="1108.32" y="4" width="3" height="15"/><rect class="dh" x="1118.32" y="4" width="3" height="30"/><rect class="di" x="1128.32" y="4" width="3" height="15"/><rect class="dj" x="1138.32" y="4" width="3" height="15"/><rect class="dk" x="1148.32" y="4" width="3" height="15"/><rect class="dl" x="1158.32" y="4" width="3" height="15"/><rect class="dm" x="1168.32" y="4" width="3" height="22.5"/><rect class="dn" x="1178.32" y="4" width="3" height="15"/><rect class="do" x="1188.32" y="4" width="3" height="15"/><rect class="dp" x="1198.32" y="4" width="3" height="15"/><rect class="dq" x="1208.32" y="4" width="3" height="15"/><rect class="dr" x="1218.32" y="4" width="3" height="30"/><rect class="ds" x="1268.32" y="4" width="3" height="22.5"/><rect class="dt" x="1308.32" y="4" width="3" height="15"/><rect class="du" x="1228.32" y="4" width="3" height="15"/><rect class="dv" x="1238.32" y="4" width="3" height="15"/><rect class="dw" x="1248.32" y="4" width="3" height="15"/><rect class="dx" x="1258.32" y="4" width="3" height="15"/><rect class="dy" x="1278.32" y="4" width="3" height="15"/><rect class="dz" x="1288.32" y="4" width="3" height="15"/><rect class="ea" x="1298.32" y="4" width="3" height="15"/><rect class="eb" x="1368.15" y="4" width="3" height="22.5"/><rect class="ec" x="1318.32" y="4" width="3" height="30"/><rect class="ed" x="1328.32" y="4" width="3" height="15"/><rect class="ee" x="1338.32" y="4" width="3" height="15"/><rect class="ef" x="1348.24" y="4" width="3" height="15"/><rect class="eg" x="1358.19" y="4" width="3" height="15"/><rect class="eh" x="1378.15" y="4" width="3" height="15"/><rect class="ei" x="1388.15" y="4" width="3" height="15"/><rect class="ej" x="1398.15" y="4" width="3" height="15"/><rect class="ek" x="1408.15" y="4" width="3" height="15"/><rect class="el" x="1418.15" y="4" width="3" height="30"/><rect class="em" x="1428.15" y="4" width="3" height="15"/><rect class="en" x="1438.15" y="4" width="3" height="15"/><rect class="eo" x="1448.15" y="4" width="3" height="15"/><rect class="ep" x="1458.15" y="4" width="3" height="15"/><rect class="eq" x="1468.15" y="4" width="3" height="22.5"/><rect class="er" x="1478.15" y="4" width="3" height="15"/><rect class="es" x="1488.15" y="4" width="3" height="15"/><rect class="et" x="1498.15" y="4" width="3" height="15"/><rect class="eu" x="1508.15" y="4" width="3" height="15"/><rect class="ev" x="1518.15" y="4" width="3" height="30"/><rect class="ew" x="1528.15" y="4" width="3" height="15"/><rect class="ex" x="1538.15" y="4" width="3" height="15"/><rect class="ey" x="1548.15" y="4" width="3" height="15"/><rect class="ez" x="1558.15" y="4" width="3" height="15"/><rect class="fa" x="1568.15" y="4" width="3" height="22.5"/><rect class="fb" x="1578.15" y="4" width="3" height="15"/><rect class="fc" x="1588.15" y="4" width="3" height="15"/><rect class="fd" x="1598.15" y="4" width="3" height="15"/><rect class="fe" x="1608.15" y="4" width="3" height="15"/><rect class="ff" x="1618.15" y="4" width="3" height="30"/><path class="fg" d="M1038.05,641.78C781.6,709,644.4,793.08,489.35,810.81,187.9,845.29,67.4,775.05,0,740.8v4.88c52.08,25.17,142.06,65.86,261.93,110.76H1640l.48-152.12C1455.94,642.19,1225.34,592.74,1038.05,641.78Z"/><path class="a" d="M662.6,798.46c-62.68,20.08-120.06,35.47-180.13,41.76q-9.78,1-19.3,1.95L461,856.44h223.3C677.57,828.31,662.6,798.46,662.6,798.46Z"/><path class="a" d="M938.62,706c-87.07,27.41-171.09,55.39-236,81,0,0,12.68,34.83,13.11,69.51H929C947.36,792,938.62,706,938.62,706Z"/><path class="a" d="M1188.65,649.08c-42.66,0-105.47,9-143.54,19.63q-36.21,10.1-69.36,20.61c-3.43,68.1-3.54,69.8-3.54,69.8-3.22,49.69-5.52,77.9-8.42,97.32h212.88C1191.15,784.31,1203.29,664.82,1188.65,649.08Z"/><path class="a" d="M1505.15,692.46c-74-24.74-205.83-50.47-280.25-43.71,0,0,4.11,75.24-23.26,207.36H1493.4C1519.62,791.92,1505.15,692.46,1505.15,692.46Z"/><path class="a" d="M1640.48,738.16c-25.07-9-83.27-30.78-117.33-39.1,0,0,16.42,76.09-14.15,157.38h131Z"/><rect class="fh" x="394.9" y="425" width="15" height="6" transform="translate(-26.06 829.91) rotate(-89.93)"/><path class="fi" d="M1622.07,436.83h-11.93l0-15h11.93Zm-23.86,0h-11.92v-15h11.93Zm-23.85,0h-11.93l0-15h11.92Zm-23.86,0h-11.93l0-15h11.93Zm-23.85,0-11.93,0v-15l11.93,0Zm-23.86,0h-11.93l0-15h11.92Zm-23.86,0H1467l0-15H1479Zm-23.85,0h-11.93v-15h11.93Zm-23.86,0h-11.93l0-15h11.93Zm-23.86,0-11.93,0,0-15,11.93,0Zm-23.86,0h-11.92v-15h11.93Zm-23.85,0h-11.93l0-15h11.93Zm-23.86,0h-11.92v-15h11.93Zm-23.85,0H1300l0-15H1312Zm-23.86,0-11.93,0,0-15,11.93,0Zm-23.86,0H1252.3v-15h11.93Zm-23.85,0-11.93,0,0-15,11.92,0Zm-23.86,0h-11.93l0-15h11.93Zm-23.86,0h-11.92v-15h11.93Zm-23.85,0-11.93,0,0-15,11.92,0Zm-23.86,0H1133l0-15H1145Zm-23.86,0-11.92,0v-15l11.93,0Zm-23.85,0H1085.3l0-15h11.92Zm-23.86,0h-11.93l0-15h11.93Zm-23.86,0-11.92,0v-15l11.93,0Zm-23.85,0h-11.93l0-15h11.92Zm-23.86,0-11.93,0,0-15,11.93,0Zm-23.85,0H966v-15H978Zm-23.86,0H942.16l0-15H954.1Zm-23.86,0-11.93,0,0-15,11.93,0Zm-23.85,0H894.45V421h11.93Zm-23.86,0-11.93,0,0-15,11.93,0Zm-23.86,0H846.73l0-15h11.93Zm-23.85,0H822.88V421h11.93ZM811,436l-11.93,0,0-15H811Zm-23.86,0H775.17v-15h11.93Zm-23.85,0-11.93,0,0-15,11.92,0Zm-23.86,0H727.45l0-15H739.4Zm-23.86,0H703.6v-15h11.93Zm-23.85,0-11.93,0v-15h11.93Zm-23.86,0H655.88l0-15h11.93Zm-23.86,0-11.92,0v-15l11.93,0Zm-23.85,0H608.17l0-15h11.92Zm-23.86,0H584.31l0-15h11.93Zm-23.86,0H560.46v-15H572.4Zm-23.85,0H536.6l0-15h11.92Zm-23.86,0-11.93,0,0-15,11.93,0Zm-23.85,0H488.89v-15h11.93Zm-23.86,0H465l0-15H477Zm-23.86,0H441.17l0-15h11.93Zm-23.85,0H417.32v-15h11.93Z"/><path class="fj" d="M0,146a325.32,325.32,0,0,1,54.09-4.51c171.31,0,310.18,133.35,310.18,297.84S225.4,737.18,54.09,737.18A324.25,324.25,0,0,1,0,732.66"/><path class="fk" d="M0,130.62a275.23,275.23,0,0,1,48.32-4.25c160,0,289.74,137.72,289.74,307.62S208.34,741.62,48.32,741.62A275.23,275.23,0,0,1,0,737.36"/><path class="fl" d="M0,139.49a309,309,0,0,1,37.6-2.29c165.94,0,300.46,132.26,300.46,295.41S203.54,728,37.6,728A309,309,0,0,1,0,725.72"/><path class="fm" d="M0,144.77a321.15,321.15,0,0,1,45.88-3.27c170.51,0,308.74,133.35,308.74,297.84S216.39,737.18,45.88,737.18A322.61,322.61,0,0,1,0,733.91"/><path class="fn" d="M251,436.51a103.65,103.65,0,0,0-2,207.29,284.77,284.77,0,0,0,86.59-163.56A103.55,103.55,0,0,0,251,436.51Z"/><path class="fo" d="M139.15,315.83A103.66,103.66,0,0,0,331.07,370.2c-15.14-63-51.38-118-101-157.25A103.67,103.67,0,0,0,139.15,315.83Z"/><path class="fp" d="M61.41,556.09a103.16,103.16,0,0,0-61.16,20v143.5a297.88,297.88,0,0,0,47.45,3.79A294.28,294.28,0,0,0,155.64,703,103.7,103.7,0,0,0,61.41,556.09Z"/><path class="fq" d="M.25,153.48V291.76A103.7,103.7,0,0,0,145.94,166.44,294.7,294.7,0,0,0,47.7,149.69,297.88,297.88,0,0,0,.25,153.48Z"/><path class="fr" d="M47.7,76.3A355.41,355.41,0,0,0,.25,79.48V107.4a103.72,103.72,0,0,1,145.69,59A291.87,291.87,0,0,1,230.11,213,103.67,103.67,0,0,1,346.47,315.83a103.16,103.16,0,0,1-15.4,54.37,283.27,283.27,0,0,1,7.84,66.31,285.35,285.35,0,0,1-3.36,43.73A103.67,103.67,0,0,1,251,643.83c-.67,0-1.33,0-2,0A291.71,291.71,0,0,1,155.64,703,103.68,103.68,0,0,1,.25,743.45v33.07A355.41,355.41,0,0,0,47.7,779.7c194.24,0,351.7-157.46,351.7-351.7S241.94,76.3,47.7,76.3Z"/><path class="fr" d="M47.7,303.24A103.14,103.14,0,0,1,.25,291.76V576.05A103.68,103.68,0,0,1,155.64,703,291.71,291.71,0,0,0,249,643.8a103.65,103.65,0,1,1,86.59-163.56,285.35,285.35,0,0,0,3.36-43.73,283.27,283.27,0,0,0-7.84-66.31A103.66,103.66,0,1,1,230.11,213a291.87,291.87,0,0,0-84.17-46.51A103.71,103.71,0,0,1,47.7,303.24Z"/><path class="fr" d="M0,153.52l.25,0V107.4l-.25.13V291.64H0Z"/><path class="fr" d="M.25,719.55l-.25,0V576.23H0v167l.25.18Z"/><path class="fr" d="M0,576.23V719.51l.25,0V576.05Z"/><path class="fr" d="M.25,153.48l-.25,0V291.64l.25.12Z"/><path class="fr" d="M.25,79.48l-.25,0v28l.25-.13Z"/><path class="fr" d="M0,743.27v33.22l.25,0V743.45Z"/><path class="fr" d="M.25,291.76,0,291.64V576.23l.25-.18Z"/><circle class="fs" cx="48.44" cy="436.51" r="17.68"/><path class="fs" d="M0,373a14.88,14.88,0,0,1,3.29-.36,15.09,15.09,0,1,1,0,30.18,15.22,15.22,0,0,1-3-.3"/><circle class="fs" cx="18.38" cy="498.8" r="15.09"/><circle class="fs" cx="118.06" cy="436.51" r="15.09"/></svg>