<svg xmlns="http://www.w3.org/2000/svg" viewBox="0 0 631.95 157.45"><defs><style>.a{fill:#fafcfd;}.b{fill:#fff;}</style></defs><title>title</title><path class="a" d="M292.05,32.08V42.39H273.61a2.46,2.46,0,0,0-2.45,2.46h0a2.46,2.46,0,0,0,2.45,2.46h18.44V99.14a2.46,2.46,0,0,0,2.46,2.46h0A2.46,2.46,0,0,0,297,99.14V47.31H315.4a2.46,2.46,0,0,0,2.46-2.46h0a2.46,2.46,0,0,0-2.46-2.46H297V32.08a2.46,2.46,0,0,0-2.45-2.46h0A2.46,2.46,0,0,0,292.05,32.08Z"/><rect class="a" x="313.37" y="57.62" width="4.92" height="40.22" rx="2.46" transform="translate(-4.84 132.16) rotate(-23.46)"/><rect class="a" x="274.76" y="98" width="4.91" height="37.86" rx="2.46"/><rect class="a" x="380.9" y="115.9" width="4.91" height="20.11" rx="2.46"/><path class="a" d="M400.78,69.14a16.64,16.64,0,0,0-6.54,1.62l0,0c-7.25,2.18-14.38,6.8-17.89,12.13a25.23,25.23,0,0,1,6.19-13.8C385.84,65.7,393.33,65.92,400.78,69.14Z"/><path class="a" d="M385.79,105.55a25.25,25.25,0,0,1-9.17-15C376,85.85,380.75,80,387.9,76.07a16.54,16.54,0,0,0-3.07,8.35C383,91.62,383.21,99.85,385.79,105.55Z"/><path class="a" d="M411.41,108.94a25.28,25.28,0,0,1-19.73.13c-3.8-2.46-5.89-9.14-5.55-16.71a16.84,16.84,0,0,0,6,7.2C397.63,104.72,405.1,108.55,411.41,108.94Z"/><path class="a" d="M426.67,85.75a25.22,25.22,0,0,1-9,19.29c-3.8,2.72-11.08,1.45-17.91-2.71.54,0,1.08.08,1.62.08a16.42,16.42,0,0,0,9.83-3.25l0,.08c6.61-3.37,12.7-9,15.33-14.69C426.62,84.94,426.67,85.36,426.67,85.75Z"/><path class="a" d="M425.42,78c.49,4.47-3.17,10.39-9,15.09a16.34,16.34,0,0,0,1.2-11.21c-.66-7.57-3.71-15.5-8.23-20A25.26,25.26,0,0,1,425.42,78Z"/><path class="a" d="M413.65,74.5a17.06,17.06,0,0,0-4.74-3.59c-5.7-4.06-13-6.78-19.07-6.78a14.44,14.44,0,0,0-1.47.05,25.11,25.11,0,0,1,13-3.66C406.28,60.52,411.19,66.51,413.65,74.5Z"/><path class="a" d="M322.05,120.28a10.38,10.38,0,0,0-.72,3h0a23.4,23.4,0,0,0-.16,11.21,15,15,0,0,1-3.69-7.14C317.05,125.23,319,122.47,322.05,120.28Z"/><path class="a" d="M335.61,138.8a15.05,15.05,0,0,1-3.63.48,14.69,14.69,0,0,1-5.44-1.07c-1.87-1-3.05-3.94-3.29-7.49a10.53,10.53,0,0,0,2.55,2.48A23.06,23.06,0,0,0,335.61,138.8Z"/><path class="a" d="M346.72,126a14.84,14.84,0,0,1-5.06,9.69c-1.74,1.36-5,1-8.45-.56a10.73,10.73,0,0,0,5-1.93v0A23.13,23.13,0,0,0,346.72,126Z"/><path class="a" d="M342.41,126.89a10.38,10.38,0,0,0,.3-2.44,10.62,10.62,0,0,0-.3-2.46,22.89,22.89,0,0,0-3.66-10.7,14.75,14.75,0,0,1,7.22,8.35C346.29,121.7,344.87,124.43,342.41,126.89Z"/><path class="a" d="M336.87,114.93l0,0a22.83,22.83,0,0,0-10.65-4.12,14.58,14.58,0,0,1,5.73-1.15c2.24,0,4.54,2.46,6.1,6C337.67,115.36,337.27,115.14,336.87,114.93Z"/><path class="a" d="M329.25,114.1a9.31,9.31,0,0,0-1.82.64l0,0a23.06,23.06,0,0,0-9.71,5.77,15,15,0,0,1,3.07-5.72C322.26,113.11,325.61,113,329.25,114.1Z"/><path class="a" d="M587,25.42h0A2.46,2.46,0,0,0,584.5,23H539c-1.52-4-6.57-6.23-11.34-2.74a1.3,1.3,0,0,0-.31.31c-4.16,5.64-.19,11.82,5.2,11.82A6.93,6.93,0,0,0,539,27.88h18.77l-.7,114.64H543.77l-18-35,11.89-73.59L506.45,34v-5.6A2.46,2.46,0,0,0,504,26h0a2.46,2.46,0,0,0-2.45,2.46v52A2.46,2.46,0,0,0,504,82.86h0a2.46,2.46,0,0,0,2.46-2.46V39l25.41-.08L522,100.16l-3.35-6.52a6.93,6.93,0,0,0,.75-6,6.85,6.85,0,0,0-4.62-4.41,6.94,6.94,0,0,0-8.86,6.87,7,7,0,0,0,2.63,5.07,6.26,6.26,0,0,0,6.07,1.39l6.06,11.77-5.53,34.19H492.75l-3.56-1.35V120.32h13.24a2.46,2.46,0,0,0,2.45-2.46h0a2.46,2.46,0,0,0-2.45-2.46H489.19v-1.94a2.45,2.45,0,0,0-2.45-2.45h0a2.46,2.46,0,0,0-2.46,2.45v1.94H468.42l-.07-10.62h31V78.42H468.21l0-4h26.25V28.44H463l.23,41h-20.6l.07-19.75H403.87V38.84H421.5A2.46,2.46,0,0,0,424,36.38h0a2.46,2.46,0,0,0-2.46-2.46H403.87V19.23a2.46,2.46,0,0,0-2.46-2.46h0A2.46,2.46,0,0,0,399,19.23V33.92H381.33v-6a2.46,2.46,0,0,0-2.46-2.46h0a2.46,2.46,0,0,0-2.45,2.46v11H399V49.7H359.12v14H343.6a2.46,2.46,0,0,0-2.46,2.45h0a2.46,2.46,0,0,0,2.46,2.46h15.52V82.37H343.46A2.46,2.46,0,0,0,341,84.83h0a2.46,2.46,0,0,0,2.46,2.45h15.66V99.05H336l.37-84.74h-85.3V62.06h25l-13.47,32c-.13,0-.26,0-.4,0-5.38,0-9.34,6.17-5.2,11.81a1.62,1.62,0,0,0,.32.32c5.64,4.15,11.81.18,11.81-5.2a6.89,6.89,0,0,0-2-4.9l16.38-38.94H256V19.23h75.46L331.08,104H364V54.61h73.75l-.07,19.76h25.56l0,4h-30v26.36h30.14l.07,10.62H429.74a2.46,2.46,0,0,0-2.46,2.46h0a2.46,2.46,0,0,0,2.46,2.46h33.79l.09,16.41,20.66,7.83v3.35a2.46,2.46,0,0,0,2.46,2.45h0a2.45,2.45,0,0,0,2.45-2.45v-1.48l2.66,1H519.3l5.13-31.75,16.34,31.75h21.16l.73-119.56H584.5A2.46,2.46,0,0,0,587,25.42ZM508.33,89.89a4.47,4.47,0,1,1,4.47,4.47A4.47,4.47,0,0,1,508.33,89.89ZM262.18,105.46a4.47,4.47,0,1,1,4.47-4.47A4.47,4.47,0,0,1,262.18,105.46Zm227.33-72.1v36.1H468.16l-.2-36.1Zm4.91,50V99.86H468.33l-.1-16.53ZM438.21,99.86V83.33h25.11l.09,16.53Zm30.3,33.47-.06-13h15.83v19Zm64-103.44a4.47,4.47,0,1,1,4.26-5.73v2.51A4.45,4.45,0,0,1,532.53,29.89Z"/><path class="a" d="M576.39,40.1V37.41A2.46,2.46,0,0,0,573.94,35h0a2.46,2.46,0,0,0-2.46,2.46V58.32a2.46,2.46,0,0,0,2.46,2.45h0a2.45,2.45,0,0,0,2.45-2.45V45H626V75.69a2.46,2.46,0,0,0,2.46,2.46h0A2.46,2.46,0,0,0,631,75.69V40.1Z"/><path class="a" d="M602.69,142.52h-12.1a6.92,6.92,0,0,0-8.5-4.17,6.77,6.77,0,0,0-4.53,4.43,6.92,6.92,0,0,0,13,4.66h17v-82A2.46,2.46,0,0,0,605.14,63h0a2.46,2.46,0,0,0-2.45,2.46Zm-18.55,6.93a4.47,4.47,0,1,1,4.47-4.47A4.48,4.48,0,0,1,584.14,149.45Z"/><rect class="a" x="577.7" y="86.27" width="4.91" height="29.44" rx="2.46"/><rect class="a" x="622.53" y="101.42" width="4.91" height="28.59" rx="2.46"/><path class="a" d="M377.48,138.55v-9.81a2.46,2.46,0,0,0-2.46-2.46h0a2.46,2.46,0,0,0-2.45,2.46v9.76a6.91,6.91,0,0,0-4.09,4H288.56V113.06a2.46,2.46,0,0,0-2.46-2.45h0a2.46,2.46,0,0,0-2.46,2.45v34.38h84.84a6.93,6.93,0,0,0,8.42,4.19,6.81,6.81,0,0,0,4.68-4.66A6.94,6.94,0,0,0,377.48,138.55Zm-2.55,10.9A4.47,4.47,0,1,1,379.4,145,4.48,4.48,0,0,1,374.93,149.45Z"/><polygon class="b" points="75.34 0 138.5 63.16 138.5 0 75.34 0"/><polygon class="b" points="184.75 45.79 140.09 1.12 140.09 90.45 184.75 45.79"/><polygon class="b" points="121.92 110.87 185.08 110.87 185.08 47.71 121.92 110.87"/><polygon class="b" points="183.96 112.46 94.63 112.46 139.29 157.12 183.96 112.46"/><polygon class="b" points="137.37 157.45 74.21 94.29 74.21 157.45 137.37 157.45"/><polygon class="b" points="27.96 111.67 72.62 156.33 72.62 67 27.96 111.67"/><polygon class="b" points="90.79 46.58 27.63 46.58 27.63 109.75 90.79 46.58"/><polygon class="b" points="28.75 44.99 118.08 44.99 73.42 0.33 28.75 44.99"/><rect class="b" x="192.24" y="7.16" width="21.47" height="3.22" transform="translate(405.95 17.53) rotate(180)"/><rect class="b" x="201.36" y="16.28" width="21.47" height="3.22" transform="translate(194.21 229.99) rotate(-90)"/><rect class="b" x="-1" y="147.08" width="21.47" height="3.22"/><rect class="b" x="-10.13" y="137.95" width="21.47" height="3.22" transform="translate(140.17 138.95) rotate(90)"/><rect class="b" x="192.24" y="147.08" width="21.47" height="3.22" transform="translate(405.95 297.37) rotate(180)"/><rect class="b" x="201.36" y="137.95" width="21.47" height="3.22" transform="translate(351.66 -72.54) rotate(90)"/><rect class="b" x="-1" y="7.16" width="21.47" height="3.22"/><rect class="b" x="-10.13" y="16.28" width="21.47" height="3.22" transform="translate(-17.28 18.5) rotate(-90)"/></svg>